<svg id="Layer_1" data-name="Layer 1" xmlns="http://www.w3.org/2000/svg" viewBox="0 0 159 87.05"><defs><style>.cls-1{fill:#fff;}.cls-2{font-size:60px;font-family:AnkeCalligraphicFG, Anke Calligraphic FG;}</style></defs><title>parchemin</title><rect class="cls-1" x="11.5" y="50.55" width="136" height="29"/><path d="M516,307v28H381V307H516m1-1H380v30H517V306Z" transform="translate(-369 -255.95)"/><rect x="149.5" y="47.55" width="9" height="34"/><path d="M527,304v33h-8V304h8m1-1H518v35h10V303Z" transform="translate(-369 -255.95)"/><rect y="47.05" width="10" height="35"/><circle cx="154" cy="47.05" r="4.5"/><path d="M523,299a4,4,0,1,1-4,4,4,4,0,0,1,4-4m0-1a5,5,0,1,0,5,5,5,5,0,0,0-5-5Z" transform="translate(-369 -255.95)"/><circle cx="5" cy="47.05" r="4.5"/><path d="M374,299a4,4,0,1,1-4,4,4,4,0,0,1,4-4m0-1a5,5,0,1,0,5,5,5,5,0,0,0-5-5Z" transform="translate(-369 -255.95)"/><circle class="cls-1" cx="5" cy="82.05" r="4.5"/><path d="M374,334a4,4,0,1,1-4,4,4,4,0,0,1,4-4m0-1a5,5,0,1,0,5,5,5,5,0,0,0-5-5Z" transform="translate(-369 -255.95)"/><circle class="cls-1" cx="154" cy="82.05" r="4.5"/><path d="M523,334a4,4,0,1,1-4,4,4,4,0,0,1,4-4m0-1a5,5,0,1,0,5,5,5,5,0,0,0-5-5Z" transform="translate(-369 -255.95)"/><text class="cls-2" transform="translate(20 49.05)">Toth</text></svg>